<svg xmlns="http://www.w3.org/2000/svg" version="1.1" xmlns:xlink="http://www.w3.org/1999/xlink" width="512" height="512" x="0" y="0" viewBox="0 0 490 490" style="enable-background:new 0 0 512 512" xml:space="preserve" class=""><g><path d="M95.6 490h298.7c21.4 0 38.8-17.4 38.8-38.8V237.1c0-21.4-17.4-38.8-38.8-38.8h-1v-51.2C393.3 66 327.3 0 246.2 0S99.1 66 99.1 147.1v51.2h-3.4c-21.4 0-38.8 17.4-38.8 38.8v214.1c-.1 21.4 17.3 38.8 38.7 38.8zm67.8-342.9c0-45.6 37.1-82.8 82.8-82.8 45.6 0 82.8 37.1 82.8 82.8v51.2H163.4v-51.2z" fill="#373737" opacity="1" data-original="#000000" class=""></path></g></svg>